<svg width="24" height="24" viewBox="0 0 24 24" fill="none" xmlns="http://www.w3.org/2000/svg">
<path d="M12 0C18.6276 0 24 5.3724 24 12C24 18.6276 18.6276 24 12 24C5.3724 24 0 18.6276 0 12C0 5.3724 5.3724 0 12 0ZM12 1.8C9.29479 1.8 6.70038 2.87464 4.78751 4.78751C2.87464 6.70038 1.8 9.29479 1.8 12C1.8 14.7052 2.87464 17.2996 4.78751 19.2125C6.70038 21.1254 9.29479 22.2 12 22.2C14.7052 22.2 17.2996 21.1254 19.2125 19.2125C21.1254 17.2996 22.2 14.7052 22.2 12C22.2 9.29479 21.1254 6.70038 19.2125 4.78751C17.2996 2.87464 14.7052 1.8 12 1.8ZM10.5 13.728L15.864 8.364C16.0248 8.20445 16.2399 8.11141 16.4662 8.10343C16.6926 8.09546 16.9137 8.17315 17.0853 8.32099C17.2569 8.46883 17.3665 8.67596 17.3921 8.90102C17.4178 9.12609 17.3576 9.35255 17.2236 9.5352L17.136 9.636L11.136 15.636C10.9836 15.7884 10.7816 15.8811 10.5667 15.8972C10.3517 15.9132 10.1382 15.8517 9.9648 15.7236L9.864 15.636L6.864 12.636C6.70445 12.4752 6.61141 12.2602 6.60343 12.0338C6.59546 11.8074 6.67315 11.5863 6.82099 11.4147C6.96883 11.2431 7.17596 11.1335 7.40102 11.1079C7.62609 11.0822 7.85255 11.1424 8.0352 11.2764L8.136 11.364L10.5 13.728L15.864 8.364L10.5 13.728Z" fill="#3FE416"/>
</svg>
