<svg width="22" height="24" viewBox="0 0 22 24" fill="none" xmlns="http://www.w3.org/2000/svg">
<path d="M13.0909 3.63636C13.0909 3.05771 12.861 2.50276 12.4519 2.09359C12.0427 1.68442 11.4877 1.45455 10.9091 1.45455C10.3304 1.45455 9.77548 1.68442 9.36631 2.09359C8.95714 2.50276 8.72727 3.05771 8.72727 3.63636H7.27273C7.27273 2.67194 7.65584 1.74702 8.33779 1.06507C9.01974 0.383116 9.94467 0 10.9091 0C11.8735 0 12.7984 0.383116 13.4804 1.06507C14.1623 1.74702 14.5455 2.67194 14.5455 3.63636H21.0909C21.2838 3.63636 21.4688 3.71299 21.6052 3.84938C21.7416 3.98577 21.8182 4.17075 21.8182 4.36364C21.8182 4.55652 21.7416 4.74151 21.6052 4.8779C21.4688 5.01429 21.2838 5.09091 21.0909 5.09091H20.2851L18.4 21.4255C18.3179 22.1344 17.9781 22.7884 17.4452 23.2631C16.9123 23.7378 16.2235 24.0001 15.5098 24H6.30836C5.59469 24.0001 4.90588 23.7378 4.37297 23.2631C3.84007 22.7884 3.50025 22.1344 3.41818 21.4255L1.53164 5.09091H0.727273C0.557054 5.09097 0.392208 5.03131 0.261442 4.92234C0.130676 4.81337 0.0422756 4.66198 0.0116362 4.49455L0 4.36364C0 4.17075 0.0766233 3.98577 0.213013 3.84938C0.349404 3.71299 0.534388 3.63636 0.727273 3.63636H13.0909ZM18.8189 5.09091H2.99782L4.86255 21.2582C4.9036 21.6128 5.07361 21.9399 5.34021 22.1773C5.60682 22.4146 5.9514 22.5457 6.30836 22.5455H15.5098C15.8665 22.5453 16.2108 22.4141 16.4771 22.1768C16.7434 21.9394 16.9132 21.6125 16.9542 21.2582L18.8189 5.09091ZM8.72727 8.72727C9.08364 8.72727 9.38182 8.95273 9.44291 9.24946L9.45455 9.36436V18.2735C9.45455 18.624 9.12873 18.9091 8.72727 18.9091C8.37091 18.9091 8.07273 18.6836 8.01164 18.3869L8 18.272V9.36582C8 9.01382 8.32582 8.72873 8.72727 8.72873V8.72727ZM13.0909 8.72727C13.4473 8.72727 13.7455 8.95273 13.8065 9.24946L13.8182 9.36436V18.2735C13.8182 18.624 13.4924 18.9091 13.0909 18.9091C12.7345 18.9091 12.4364 18.6836 12.3753 18.3869L12.3636 18.272V9.36582C12.3636 9.01382 12.6895 8.72873 13.0909 8.72873V8.72727Z" fill="#FF2E2E"/>
</svg>
