<svg width="20" height="24" viewBox="0 0 20 24" fill="none" xmlns="http://www.w3.org/2000/svg">
<path d="M3.20026 0C2.3515 0 1.5375 0.33717 0.937335 0.937335C0.337169 1.5375 0 2.3515 0 3.20026V19.1984C0 20.0471 0.337169 20.8611 0.937335 21.4613C1.5375 22.0615 2.3515 22.3986 3.20026 22.3986H4.874L5.27403 20.7985H3.20026C2.77588 20.7985 2.36888 20.6299 2.0688 20.3298C1.76872 20.0298 1.60013 19.6228 1.60013 19.1984V3.20026C1.60013 2.77588 1.76872 2.36888 2.0688 2.0688C2.36888 1.76872 2.77588 1.60013 3.20026 1.60013H8.00066V5.60046C8.00065 6.23648 8.25309 6.84649 8.70252 7.29652C9.15196 7.74656 9.76163 7.99981 10.3977 8.00066H14.398V10.3048C14.8876 9.97042 15.4333 9.7544 15.9981 9.65679V7.06138C15.9976 6.42502 15.7443 5.81493 15.2941 5.36524L10.6329 0.702458C10.1829 0.252791 9.57286 0.000135821 8.93673 0H3.20026ZM14.0668 6.40052H10.4009C10.1887 6.40052 9.98516 6.31623 9.83512 6.16619C9.68508 6.01615 9.60079 5.81265 9.60079 5.60046V1.92976L14.0684 6.39732L14.0668 6.40052ZM15.9981 11.2969C15.6109 11.4105 15.246 11.6218 14.9388 11.9274L8.08066 18.7855C7.52428 19.3419 7.1256 20.036 6.92537 20.7969L6.91097 20.8497L6.42773 22.7875C6.38696 22.9507 6.3891 23.1218 6.43393 23.284C6.47877 23.4462 6.56477 23.594 6.68361 23.7132C6.80244 23.8323 6.95006 23.9187 7.11214 23.964C7.27421 24.0093 7.44524 24.0119 7.60862 23.9716L9.54638 23.4867C10.3276 23.2916 11.0411 22.8879 11.6105 22.3186L18.4719 15.4573C18.865 15.065 19.1161 14.5529 19.1854 14.0019C19.2547 13.4509 19.1383 12.8926 18.8546 12.4152C18.5709 11.9378 18.1361 11.5686 17.6191 11.3661C17.102 11.1635 16.5322 11.1392 15.9997 11.2969H15.9981Z" fill="#E16F1C"/>
</svg>
