<svg width="22" height="22" viewBox="0 0 22 22" fill="none" xmlns="http://www.w3.org/2000/svg">
<path fill-rule="evenodd" clip-rule="evenodd" d="M11 0.916672C5.43121 0.916672 0.916626 5.43125 0.916626 11C0.916626 16.5688 5.43121 21.0833 11 21.0833C16.5687 21.0833 21.0833 16.5688 21.0833 11C21.0833 5.43125 16.5687 0.916672 11 0.916672ZM14.398 8.89809C14.565 8.7252 14.6574 8.49365 14.6553 8.2533C14.6532 8.01296 14.5568 7.78305 14.3869 7.61309C14.2169 7.44313 13.987 7.34673 13.7467 7.34464C13.5063 7.34255 13.2748 7.43494 13.1019 7.60192L11 9.70384L8.89804 7.60192C8.81348 7.51437 8.71233 7.44454 8.6005 7.39649C8.48866 7.34845 8.36837 7.32317 8.24666 7.32211C8.12495 7.32105 8.00424 7.34424 7.89158 7.39034C7.77893 7.43643 7.67658 7.50449 7.59051 7.59056C7.50445 7.67663 7.43638 7.77898 7.39029 7.89163C7.3442 8.00429 7.32101 8.12499 7.32206 8.24671C7.32312 8.36842 7.34841 8.48871 7.39645 8.60054C7.44449 8.71238 7.51432 8.81353 7.60188 8.89809L9.70379 11L7.60188 13.1019C7.51432 13.1865 7.44449 13.2876 7.39645 13.3995C7.34841 13.5113 7.32312 13.6316 7.32206 13.7533C7.32101 13.875 7.3442 13.9957 7.39029 14.1084C7.43638 14.221 7.50445 14.3234 7.59051 14.4094C7.67658 14.4955 7.77893 14.5636 7.89158 14.6097C8.00424 14.6558 8.12495 14.679 8.24666 14.6779C8.36837 14.6768 8.48866 14.6516 8.6005 14.6035C8.71233 14.5555 8.81348 14.4856 8.89804 14.3981L11 12.2962L13.1019 14.3981C13.2748 14.5651 13.5063 14.6575 13.7467 14.6554C13.987 14.6533 14.2169 14.5569 14.3869 14.3869C14.5568 14.217 14.6532 13.9871 14.6553 13.7467C14.6574 13.5064 14.565 13.2748 14.398 13.1019L12.2961 11L14.398 8.89809Z" fill="#FF2E2E"/>
</svg>
