<svg width="30" height="38" viewBox="0 0 30 38" fill="none" xmlns="http://www.w3.org/2000/svg">
<path d="M25.5 19.5C26.6935 19.5 27.8381 19.9741 28.682 20.818C29.5259 21.6619 30 22.8065 30 24V25.5C30 31.413 24.42 37.5 15 37.5C5.58 37.5 0 31.413 0 25.5V24C0 22.8065 0.474106 21.6619 1.31802 20.818C2.16193 19.9741 3.30653 19.5 4.5 19.5H25.5ZM25.5 22.5H4.5C4.10218 22.5 3.72064 22.658 3.43934 22.9393C3.15804 23.2206 3 23.6022 3 24V25.5C3 29.814 7.296 34.5 15 34.5C22.704 34.5 27 29.814 27 25.5V24C27 23.6022 26.842 23.2206 26.5607 22.9393C26.2794 22.658 25.8978 22.5 25.5 22.5ZM15 0C17.188 0 19.2865 0.869194 20.8336 2.41637C22.3808 3.96354 23.25 6.06196 23.25 8.25C23.25 10.438 22.3808 12.5365 20.8336 14.0836C19.2865 15.6308 17.188 16.5 15 16.5C12.812 16.5 10.7135 15.6308 9.16637 14.0836C7.61919 12.5365 6.75 10.438 6.75 8.25C6.75 6.06196 7.61919 3.96354 9.16637 2.41637C10.7135 0.869194 12.812 0 15 0ZM15 3C13.6076 3 12.2723 3.55312 11.2877 4.53769C10.3031 5.52226 9.75 6.85761 9.75 8.25C9.75 9.64239 10.3031 10.9777 11.2877 11.9623C12.2723 12.9469 13.6076 13.5 15 13.5C16.3924 13.5 17.7277 12.9469 18.7123 11.9623C19.6969 10.9777 20.25 9.64239 20.25 8.25C20.25 6.85761 19.6969 5.52226 18.7123 4.53769C17.7277 3.55312 16.3924 3 15 3Z" fill="#666666"/>
</svg>
